# xmcd CD database file
#
# Track frame offsets:
#	150
#	27600
#	49200
#	73200
#	100950
#	125250
#	149550
#	178500
#	192300
#	210000
#	236700
#	264300
#	286350
#
# Disc length: 4256 seconds
#
# Revision: 0
# Processed by: cddbd v1.5.2PL0 Copyright (c) Steve Scherf et al.
# Submitted via: CDex 1.51
#
DISCID=c6109e0d
DTITLE=Lou Donaldson - Musty Rusty
DYEAR=1965
DGENRE=Jazz
TTITLE0=Musty rusty
TTITLE1=Midnight sun
TTITLE2=Hipty hop
TTITLE3=The spacewalk
TTITLE4=Ha' mercy
TTITLE5=Cherry pink and apple blossom white
TTITLE6=Greasy papa
TTITLE7=Tangerine
TTITLE8=Wig blues
TTITLE9=Blues #3
TTITLE10=Win, lose or draw
TTITLE11=Be anything, but be mine
TTITLE12=Day by day
EXTD=YEAR: 1965
EXTT0=
EXTT1=
EXTT2=
EXTT3=
EXTT4=
EXTT5=
EXTT6=
EXTT7=
EXTT8=
EXTT9=
EXTT10=
EXTT11=
EXTT12=
PLAYORDER=
